# File created by Blade
# Date/Time:  Tue Sep 30 19:15:20 2014
#---------------------------------------------------------
:version 1.10
:name HOM
:units
  mass 1.0
  length 1.000000
  angle deg
:documentation
     Acclaim Skeleton File
:root
   axis xyz
   order TX TY TZ RX RY RZ
   position 0.000000 0.000000 0.000000
   orientation 0 0 0
:bonedata
   begin
      id 1
      name Spine_dum
      direction 0.000000 1.000000 0.000000
      length 7.508935
      axis 0.0 0.0 0.0 xyz
   end
   begin
      id 2
      name LeftUpLeg_dum
      direction 1.000000 0.000000 0.000000
      length 3.000554
      axis 0.0 0.0 0.0 xyz
   end
   begin
      id 3
      name RightUpLeg_dum
      direction -1.000000 0.000000 0.000000
      length 3.000554
      axis 0.0 0.0 0.0 xyz
   end
   begin
      id 4
      name Spine
      direction 0.000000 1.000000 0.000000
      length 0.000000
      axis 0.0 0.0 0.0 xyz
      dof rx ry rz
   end
   begin
      id 5
      name Spine_dum1
      direction 0.000000 1.000000 0.000000
      length 13.861122
      axis 0.0 0.0 0.0 xyz
   end
   begin
      id 6
      name Spine_dum2
      direction 0.000000 1.000000 0.000000
      length 8.204763
      axis 0.0 0.0 0.0 xyz
   end
   begin
      id 7
      name Spine_dum3
      direction 0.000000 1.000000 0.000000
      length 8.204763
      axis 0.0 0.0 0.0 xyz
   end
   begin
      id 8
      name Head
      direction 0.000000 1.000000 0.000000
      length 4.527541
      axis 0.0 0.0 0.0 xyz
      dof rx ry rz
   end
   begin
      id 9
      name LeftShoulder
      direction 1.000000 0.000000 0.000000
      length 6.635947
      axis 0.0 0.0 0.0 xyz
      dof rx ry rz
   end
   begin
      id 10
      name LeftArm
      direction 1.000000 0.000000 0.000000
      length 10.274200
      axis 0.0 0.0 0.0 xyz
      dof rx ry rz
   end
   begin
      id 11
      name LeftForeArm
      direction 1.000000 0.000000 0.000000
      length 8.522133
      axis 0.0 0.0 0.0 xyz
      dof ry rz rx
   end
   begin
      id 12
      name LeftHand
      direction 0.000000 0.000000 0.000000
      length 0.000000
      axis 0.0 0.0 0.0 xyz
      dof rx ry rz
   end
   begin
      id 13
      name LeftHand_dum1
      direction 0.000000 0.000000 0.000000
      length 0.000000
      axis 0.0 0.0 0.0 xyz
   end
   begin
      id 14
      name LeftHand_dum2
      direction 1.000000 0.000000 0.000000
      length 3.936992
      axis 0.0 0.0 0.0 xyz
   end
   begin
      id 15
      name LeftHandThumb1
      direction 0.000000 0.000000 1.000000
      length 3.936992
      axis 0.0 0.0 0.0 xyz
      dof rx rz ry
   end
   begin
      id 16
      name RightShoulder
      direction -1.000000 0.000000 0.000000
      length 6.635947
      axis 0.0 0.0 0.0 xyz
      dof rx ry rz
   end
   begin
      id 17
      name RightArm
      direction -1.000000 0.000000 0.000000
      length 10.274200
      axis 0.0 0.0 0.0 xyz
      dof rx ry rz
   end
   begin
      id 18
      name RightForeArm
      direction -1.000000 0.000000 0.000000
      length 8.522133
      axis 0.0 0.0 0.0 xyz
      dof ry rz rx
   end
   begin
      id 19
      name RightHand
      direction 0.000000 0.000000 0.000000
      length 0.000000
      axis 0.0 0.0 0.0 xyz
      dof rx ry rz
   end
   begin
      id 20
      name RightHand_dum1
      direction 0.000000 0.000000 0.000000
      length 0.000000
      axis 0.0 0.0 0.0 xyz
   end
   begin
      id 21
      name RightHand_dum2
      direction -1.000000 0.000000 0.000000
      length 3.936992
      axis 0.0 0.0 0.0 xyz
   end
   begin
      id 22
      name RightHandThumb1
      direction 0.000000 0.000000 1.000000
      length 3.936992
      axis 0.0 0.0 0.0 xyz
      dof rx rz ry
   end
   begin
      id 23
      name LeftUpLeg
      direction 0.000000 -1.000000 0.000000
      length 16.490817
      axis 0.0 0.0 0.0 xyz
      dof rx ry rz
   end
   begin
      id 24
      name LeftLeg
      direction 0.000000 -1.000000 0.000000
      length 14.556551
      axis 0.0 0.0 0.0 xyz
      dof rx ry rz
   end
   begin
      id 25
      name LeftFoot
      direction 0.000000 -0.258818 0.965926
      length 4.831105
      axis 0.0 0.0 0.0 xyz
      dof rx ry rz
   end
   begin
      id 26
      name LeftToeBase
      direction 0.000000 0.000000 1.000000
      length 2.952744
      axis 0.0 0.0 0.0 xyz
      dof rx ry rz
   end
   begin
      id 27
      name RightUpLeg
      direction 0.000000 -1.000000 0.000000
      length 16.490817
      axis 0.0 0.0 0.0 xyz
      dof rx ry rz
   end
   begin
      id 28
      name RightLeg
      direction 0.000000 -1.000000 0.000000
      length 14.556551
      axis 0.0 0.0 0.0 xyz
      dof rx ry rz
   end
   begin
      id 29
      name RightFoot
      direction 0.000000 -0.258818 0.965926
      length 4.831105
      axis 0.0 0.0 0.0 xyz
      dof rx ry rz
   end
   begin
      id 30
      name RightToeBase
      direction 0.000000 0.000000 1.000000
      length 2.952744
      axis 0.0 0.0 0.0 xyz
      dof rx ry rz
   end
:hierarchy
   begin
      root Spine_dum LeftUpLeg_dum RightUpLeg_dum
      Spine_dum Spine
      LeftUpLeg_dum LeftUpLeg
      RightUpLeg_dum RightUpLeg
      Spine Spine_dum1 Spine_dum2 Spine_dum3
      Spine_dum1 Head
      Spine_dum2 LeftShoulder
      Spine_dum3 RightShoulder
      LeftShoulder LeftArm
      LeftArm LeftForeArm
      LeftForeArm LeftHand
      LeftHand LeftHand_dum1 LeftHand_dum2
      LeftHand_dum1 LeftHandThumb1
      RightShoulder RightArm
      RightArm RightForeArm
      RightForeArm RightHand
      RightHand RightHand_dum1 RightHand_dum2
      RightHand_dum1 RightHandThumb1
      LeftUpLeg LeftLeg
      LeftLeg LeftFoot
      LeftFoot LeftToeBase
      RightUpLeg RightLeg
      RightLeg RightFoot
      RightFoot RightToeBase
   end

# File created by Blade
# Date/Time:  Tue Sep 30 19:15:05 2014
# Frame Rate: 120.000 fps
#------------------------------------------------------
:FULLY-SPECIFIED
:DEGREES
276
root -1.586997 32.907534 -2.657095 3.697886 0.729904 -5.725173
Spine -6.695564 3.714562 4.166445
Head -4.719543 -8.862764 11.868336
LeftShoulder 17.935450 10.873636 18.457478
LeftArm -14.877403 -21.033403 -70.603375
LeftForeArm -107.671176 3.749772 -1.193601
LeftHand -0.000002 30.248349 12.470418
LeftHandThumb1 30.357831 13.997178 22.438692
RightShoulder -9.433455 -23.381027 -16.537604
RightArm 18.319579 -16.230202 80.570455
RightForeArm 21.616895 -10.425612 24.544107
RightHand 0.000018 -6.737143 8.919387
RightHandThumb1 30.482666 -12.916435 -20.793814
LeftUpLeg -4.029007 5.203979 -1.720333
LeftLeg 6.631100 0.000000 0.000000
LeftFoot -12.482811 8.201604 -5.486094
LeftToeBase 5.876500 -0.000000 -0.000000
RightUpLeg -87.047225 -9.836840 5.674601
RightLeg 100.649200 -0.000000 -0.000000
RightFoot 12.001427 -9.750447 3.970295
RightToeBase -1.478400 -0.000000 0.000000
277
root -1.587597 32.908534 -2.658895 3.714780 0.693166 -5.737797
Spine -6.657088 3.717899 4.174530
Head -4.751804 -8.850179 11.946164
LeftShoulder 17.927330 10.859563 18.472716
LeftArm -14.751407 -21.064922 -70.534120
LeftForeArm -107.697845 3.735969 -1.191129
LeftHand -0.000079 30.262695 12.447821
LeftHandThumb1 30.357831 13.997178 22.438692
RightShoulder -9.460836 -23.398819 -16.556898
RightArm 18.346984 -16.241785 80.576165
RightForeArm 21.617853 -10.434859 24.562037
RightHand -0.000029 -6.766035 8.954431
RightHandThumb1 30.482666 -12.916435 -20.793814
LeftUpLeg -4.052614 5.137446 -1.711386
LeftLeg 6.641300 -0.000000 0.000000
LeftFoot -12.455649 8.270868 -5.325539
LeftToeBase 5.832100 -0.000000 0.000000
RightUpLeg -87.006053 -9.840852 5.638427
RightLeg 100.638496 -0.000000 -0.000000
RightFoot 11.931097 -10.087496 3.961114
RightToeBase -1.227800 -0.000000 0.000000
278
root -1.586797 32.910334 -2.661195 3.743482 0.650615 -5.740345
Spine -6.645340 3.725373 4.182331
Head -4.754396 -8.841939 11.976986
LeftShoulder 17.948769 10.864497 18.484086
LeftArm -14.614116 -21.123348 -70.475193
LeftForeArm -107.688875 3.665529 -1.168076
LeftHand -0.000039 30.254957 12.567615
LeftHandThumb1 30.357831 13.997178 22.438692
RightShoulder -9.456846 -23.405860 -16.590652
RightArm 18.308597 -16.249586 80.593323
RightForeArm 21.638812 -10.464567 24.599831
RightHand -0.000045 -6.840557 8.976010
RightHandThumb1 30.482666 -12.916435 -20.793814
LeftUpLeg -4.089157 5.043307 -1.715920
LeftLeg 6.652700 -0.000000 -0.000000
LeftFoot -12.426225 8.361774 -5.238069
LeftToeBase 5.760100 0.000000 0.000000
RightUpLeg -86.978792 -9.879169 5.619494
RightLeg 100.628899 -0.000000 -0.000000
RightFoot 11.866420 -10.553724 4.022279
RightToeBase -0.892400 -0.000000 0.000000
279
root -1.584797 32.913035 -2.665295 3.791660 0.601592 -5.735672
Spine -6.664007 3.743318 4.182930
Head -4.718231 -8.867718 12.012380
LeftShoulder 17.979652 10.865710 18.508125
LeftArm -14.484358 -21.190522 -70.440638
LeftForeArm -107.646501 3.586787 -1.140105
LeftHand -0.000066 30.201934 12.518583
LeftHandThumb1 30.357831 13.997178 22.438692
RightShoulder -9.426291 -23.397421 -16.626753
RightArm 18.230467 -16.256097 80.601920
RightForeArm 21.671997 -10.485536 24.606136
RightHand -0.000015 -6.808262 8.970741
RightHandThumb1 30.482666 -12.916435 -20.793814
LeftUpLeg -4.141372 4.933591 -1.729714
LeftLeg 6.649400 -0.000000 -0.000000
LeftFoot -12.348564 8.443659 -5.098091
LeftToeBase 5.652600 -0.000000 -0.000000
RightUpLeg -86.982693 -9.945063 5.645758
RightLeg 100.596397 -0.000000 -0.000000
RightFoot 11.932721 -10.794870 3.999784
RightToeBase -0.985200 -0.000000 0.000000
280
root -1.582797 32.915934 -2.669495 3.844060 0.552637 -5.724448
Spine -6.689837 3.763014 4.176561
Head -4.665700 -8.905049 12.048253
LeftShoulder 17.979256 10.864416 18.537517
LeftArm -14.329352 -21.220500 -70.432173
LeftForeArm -107.599847 3.584184 -1.136069
LeftHand -0.000061 30.127977 12.671275
LeftHandThumb1 30.357831 13.997178 22.438692
RightShoulder -9.396941 -23.398926 -16.660813
RightArm 18.127504 -16.280047 80.605897
RightForeArm 21.739028 -10.521266 24.605244
RightHand 0.000034 -6.775378 9.014649
RightHandThumb1 30.482666 -12.916435 -20.793814
LeftUpLeg -4.192099 4.809306 -1.742449
LeftLeg 6.642300 -0.000000 -0.000000
LeftFoot -12.302459 8.506494 -5.040233
LeftToeBase 5.606400 -0.000000 -0.000000
RightUpLeg -87.002720 -10.048853 5.695229
RightLeg 100.572601 0.000000 0.000000
RightFoot 11.954031 -10.969475 3.830431
RightToeBase -0.807800 -0.000000 0.000000
281
root -1.579197 32.918834 -2.671195 3.869032 0.518708 -5.699718
Spine -6.687110 3.772414 4.161893
Head -4.610069 -8.941803 12.040689
LeftShoulder 18.031415 10.866961 18.621827
LeftArm -14.199729 -21.315165 -70.536025
LeftForeArm -107.511633 3.648415 -1.150223
LeftHand -0.000070 30.096900 12.612624
LeftHandThumb1 30.357831 13.997178 22.438692
RightShoulder -9.362798 -23.384953 -16.690152
RightArm 17.965499 -16.336810 80.598579
RightForeArm 21.860992 -10.585604 24.602074
RightHand -0.000029 -6.737003 9.026288
RightHandThumb1 30.482666 -12.916435 -20.793814
LeftUpLeg -4.205329 4.666548 -1.762295
LeftLeg 6.618100 -0.000000 -0.000000
LeftFoot -12.243385 8.561630 -5.059948
LeftToeBase 5.592300 -0.000000 0.000000
RightUpLeg -86.970779 -10.061853 5.616741
RightLeg 100.553200 -0.000000 -0.000000
RightFoot 11.947394 -11.209278 3.898076
RightToeBase -0.817200 -0.000000 0.000000
